<?xml version="1.0" standalone="no"?>
<!DOCTYPE svg PUBLIC "-//W3C//DTD SVG 20010904//EN"
 "http://www.w3.org/TR/2001/REC-SVG-20010904/DTD/svg10.dtd">
<svg version="1.0" xmlns="http://www.w3.org/2000/svg"
 width="512.000000pt" height="512.000000pt" viewBox="0 0 512.000000 512.000000"
 preserveAspectRatio="xMidYMid meet">

<g transform="translate(0.000000,512.000000) scale(0.100000,-0.100000)"
fill="#006EFC" stroke="none">
<path d="M2606 4799 c-154 -20 -277 -66 -414 -155 -75 -48 -213 -182 -1005
-972 l-917 -917 270 -270 270 -270 892 892 c623 621 907 898 938 914 66 34
166 33 240 -3 97 -46 158 -120 185 -224 17 -67 10 -124 -21 -188 -9 -17 -418
-434 -910 -926 l-894 -895 270 -270 270 -270 892 892 c599 597 907 898 935
912 92 46 194 36 290 -29 70 -47 117 -113 138 -195 18 -68 13 -119 -17 -180
-13 -26 -332 -352 -914 -935 l-894 -895 270 -270 270 -270 901 900 c541 540
925 931 960 979 270 358 256 899 -33 1273 -54 71 -172 181 -248 233 -123 84
-270 141 -419 164 l-76 12 -12 74 c-39 237 -143 432 -316 597 -243 231 -564
335 -901 292z"/>
</g>
</svg>
